<?xml version="1.0" standalone="no"?>
<!DOCTYPE svg PUBLIC "-//W3C//DTD SVG 20010904//EN"
 "http://www.w3.org/TR/2001/REC-SVG-20010904/DTD/svg10.dtd">
<svg version="1.0" xmlns="http://www.w3.org/2000/svg"
 width="500.000000pt" height="500.000000pt" viewBox="0 0 500.000000 500.000000"
 preserveAspectRatio="xMidYMid meet">
<metadata>
Created by potrace 1.11, written by Peter Selinger 2001-2013
</metadata>
<g transform="translate(0.000000,500.000000) scale(0.100000,-0.100000)"
fill="#000000" stroke="none">
<path d="M0 2500 l0 -2500 2500 0 2500 0 0 2500 0 2500 -2500 0 -2500 0 0
-2500z m2680 1950 c407 -31 784 -178 1093 -427 l68 -55 -26 -34 c-15 -19 -68
-95 -118 -168 -377 -547 -1263 -1815 -1268 -1813 -18 5 -443 571 -547 727 -20
30 -39 57 -42 60 -10 9 -165 240 -179 268 -8 15 -18 29 -23 30 -5 2 -25 29
-45 60 -19 32 -70 104 -113 162 -42 58 -89 126 -104 153 -15 26 -30 47 -33 47
-16 0 -181 -140 -215 -183 -94 -118 -142 -267 -136 -417 3 -84 8 -105 36 -162
18 -36 32 -75 32 -87 0 -11 4 -21 8 -21 7 0 151 -208 187 -269 6 -9 25 -35 43
-58 17 -22 32 -44 32 -47 0 -4 5 -12 10 -19 12 -13 128 -169 212 -285 29 -40
98 -132 153 -205 55 -74 105 -141 110 -149 39 -61 131 -191 206 -289 130 -173
194 -275 290 -463 l86 -168 56 93 c184 306 1166 1722 1329 1915 182 216 405
521 486 665 15 27 30 49 33 49 16 0 103 -227 138 -361 17 -63 38 -163 47 -224
22 -146 22 -414 0 -560 -130 -866 -795 -1531 -1661 -1661 -146 -22 -414 -22
-560 0 -648 98 -1192 494 -1481 1079 -371 750 -220 1651 376 2247 363 363 796
547 1360 579 14 0 86 -4 160 -9z"/>
</g>
</svg>
