<svg xmlns="http://www.w3.org/2000/svg" width="500" height="250" viewBox="0 0 500 250">
  <defs>
    <style>
      .cls-1 {
        fill: #090909;
      }

      .cls-2 {
        fill: #fff;
      }

      .cls-2, .cls-4, .cls-5 {
        fill-rule: evenodd;
      }

      .cls-3 {
        fill: #fefcfe;
      }

      .cls-4 {
        fill: #009cab;
      }
    </style>
  </defs>
  <rect class="cls-1" x="338" y="52" width="147" height="146"/>
  <path class="cls-2" d="M412,69a56,56,0,1,1-56,56A56,56,0,0,1,412,69Zm-36.02,89.989L409.546,125.5,375.98,92.011h28.472L438.02,125.5l-33.568,33.488H375.98Z"/>
  <circle class="cls-3" cx="413" cy="125" r="57"/>
  <path class="cls-4" d="M402.486,151.471L448.7,84.961,465.12,96.373l-46.209,66.509Z"/>
  <path class="cls-4" d="M386.131,108.99c5.366,8.174,11.55,16.864,15.827,22.589,4.525,6.087,7.142,9.208,11.081,14.607-2.358,8.371-5.232,15.985-9.095,22.15-12.069-17.08-22.281-29.408-33.958-47.343,5.483-4.061,10.839-8.074,16.145-12h0Z"/>
  <path class="cls-4" d="M468.208,56.013c-5.3,11.969-17.271,24.653-23.1,34.376,3.051,5.223,16.388.255-1.445,36.137,9.593-10.764,17.286-21.211,20.951-28.347,3.973-7.47,3.919-11.629,5.13-17.52,0.128-1.283.2-2.533,0.238-3.75q0.027-.913.023-1.8t-0.032-1.752c-0.074-2.3-.272-4.479-0.511-6.528-0.477-4.1-1.116-7.694-1.255-10.815"/>
  <path class="cls-4" d="M408.886,179c3.386-6.082,7.685-12.026,15.852-24.969,3.4-5.527,6.682-14.769,6.848-21.59a24.591,24.591,0,0,0,.006-3.645,3.378,3.378,0,0,0-.069-0.442,0.429,0.429,0,0,0-.092-0.209c-0.068-.057-0.15.053-0.252,0.344-0.442,1.1-1.011,5.416-3.507,11.15-12.154,6.232-24.692,5.146-36.614,5.171-0.039.438-.056,0.867-0.054,1.288s0.023,0.833.062,1.238a13.865,13.865,0,0,0,.434,2.344,18.13,18.13,0,0,0,1.849,4.273c1.57,2.707,3.68,5.188,5.538,7.789a81.23,81.23,0,0,1,10,17.258"/>
  <path id="YB" class="cls-5" d="M13.97,58.845q9.132,0.2,13.021,1.992a16.6,16.6,0,0,1,6.8,6.267l44.6,69.475v44.211a6.441,6.441,0,0,1-2.332,5.3q-2.332,1.894-7.579,1.9H55.461v7.287h65.977v-7.287H109.1q-5.539,0-8.357-2.041-2.04-1.552-2.04-5.15V135.317L131.94,74.587q5.031-9.132,10.45-12.437t14.806-3.3V51.558h-54.8v7.288h6.7q6.122,0,9.425,3.012a10.389,10.389,0,0,1,3.3,8.065,14.374,14.374,0,0,1-1.749,7L93.832,125.194,57.362,68.562A8.041,8.041,0,0,1,56,64a4.173,4.173,0,0,1,2.617-3.789q2.619-1.36,11.34-1.36h6.976V51.558H13.97v7.288Zm170.608,0H197.21q4.663,0,7.093,2.089a7.7,7.7,0,0,1,2.429,6.17V182.249q0,2.237-2.478,3.984t-7.822,1.749H184.578v7.287h72.681q17.1,0,30.56-5.737t19.239-14.005a32.278,32.278,0,0,0,5.781-18.964,29.941,29.941,0,0,0-10.154-23.194q-10.154-9.192-30.462-13.47,16.421-4.952,24.584-13.493a28.962,28.962,0,0,0,8.162-20.774q0-14.657-11.709-24.366t-33.766-9.708H184.578v7.288Zm42.948,7.47q0-4.268,2.818-5.967t14.575-1.7q16.615,0,23.369,2.667a20.48,20.48,0,0,1,10.3,8.489q3.546,5.821,3.546,16.2,0,16.784-7.433,24.155t-19.968,7.373H227.526V66.315Zm29.539,58.507q15.06,0,23.612,8.5t8.551,23.271q0,16.131-8.26,23.758t-25.555,7.628H238.02q-5.928,0-8.211-1.944a7.23,7.23,0,0,1-2.283-5.83V124.822h29.539Z"/>
  <path class="cls-4" d="M378.283,97c-3.685,2.953-5.925,3.91-8.536,9.031a22.182,22.182,0,0,0-1.372,4.16,17.46,17.46,0,0,0-.363,2.515c-0.03.437-.043,0.88-0.035,1.328s0.036,0.9.088,1.356c0.45,3.9,2.25,6.778,7.5,10.054-3.233-3.419-1.521-5.922,2.234-7.275,3.825-.971,9.694-0.792,16.4,9.995C387.27,105.934,382.73,105.105,378.283,97"/>
</svg>
